<?xml version="1.0" standalone="no"?>
<!DOCTYPE svg PUBLIC "-//W3C//DTD SVG 1.0//EN" "http://www.w3.org/TR/2001/REC-SVG-20010904/DTD/svg10.dtd">
<svg xmlns="http://www.w3.org/2000/svg" xmlns:xlink="http://www.w3.org/1999/xlink" id="body_1" width="1920" height="927">

<g transform="matrix(1.4814814 0 0 1.4808307 0 0)">
	<g transform="matrix(0.9818182 0 0 0.9811913 0 0)">
		<g transform="matrix(1.1000001 0 0 1.1000001 0 0)">
            <path d="M734.567 34.372C 705.875 96.096 711.301 134.794 750.84204 150.466C 810.155 173.974 951.189 183.377 1010.14105 234.37201C 1069.0911 285.366 1248.838 245.94402 1279.5791 158.42201C 1310.32 70.9 1365.669 -64 1073.808 -64C 879.232 -64 766.154 -31.21 734.568 34.372L734.568 34.372L734.567 34.372z" stroke="none" fill="#FFFA72" fill-rule="nonzero" />
            <path transform="matrix(2.8 0 0 2.8 -1800 60)"  d="M734.567 34.372C 705.875 96.096 711.301 134.794 750.84204 150.466C 810.155 173.974 951.189 183.377 1010.14105 234.37201C 1069.0911 285.366 1248.838 245.94402 1279.5791 158.42201C 1310.32 70.9 1365.669 -64 1073.808 -64C 879.232 -64 766.154 -31.21 734.568 34.372L734.568 34.372L734.567 34.372z" stroke="none" fill="#D6F2FF" fill-rule="nonzero" />
            <path transform="matrix(2.65 0 0 2.65 -1650 55)"  d="M734.567 34.372C 705.875 96.096 711.301 134.794 750.84204 150.466C 810.155 173.974 951.189 183.377 1010.14105 234.37201C 1069.0911 285.366 1248.838 245.94402 1279.5791 158.42201C 1310.32 70.9 1365.669 -64 1073.808 -64C 879.232 -64 766.154 -31.21 734.568 34.372L734.568 34.372L734.567 34.372z" stroke="none" fill="#C7E1F3" fill-rule="nonzero" />
            <path transform="matrix(2.5 0 0 2.5 -1500 50)"  d="M734.567 34.372C 705.875 96.096 711.301 134.794 750.84204 150.466C 810.155 173.974 951.189 183.377 1010.14105 234.37201C 1069.0911 285.366 1248.838 245.94402 1279.5791 158.42201C 1310.32 70.9 1365.669 -64 1073.808 -64C 879.232 -64 766.154 -31.21 734.568 34.372L734.568 34.372L734.567 34.372z" stroke="none" fill="#B8CFE6" fill-rule="nonzero" />
            <path transform="matrix(2.35 0 0 2.35 -1350 45)"  d="M734.567 34.372C 705.875 96.096 711.301 134.794 750.84204 150.466C 810.155 173.974 951.189 183.377 1010.14105 234.37201C 1069.0911 285.366 1248.838 245.94402 1279.5791 158.42201C 1310.32 70.9 1365.669 -64 1073.808 -64C 879.232 -64 766.154 -31.21 734.568 34.372L734.568 34.372L734.567 34.372z" stroke="none" fill="#A9BEDA" fill-rule="nonzero" />
            <path transform="matrix(2.2 0 0 2.2 -1200 40)"  d="M734.567 34.372C 705.875 96.096 711.301 134.794 750.84204 150.466C 810.155 173.974 951.189 183.377 1010.14105 234.37201C 1069.0911 285.366 1248.838 245.94402 1279.5791 158.42201C 1310.32 70.9 1365.669 -64 1073.808 -64C 879.232 -64 766.154 -31.21 734.568 34.372L734.568 34.372L734.567 34.372z" stroke="none" fill="#9AADCE" fill-rule="nonzero" />
            <path transform="matrix(2.05 0 0 2.05 -1050 35)"  d="M734.567 34.372C 705.875 96.096 711.301 134.794 750.84204 150.466C 810.155 173.974 951.189 183.377 1010.14105 234.37201C 1069.0911 285.366 1248.838 245.94402 1279.5791 158.42201C 1310.32 70.9 1365.669 -64 1073.808 -64C 879.232 -64 766.154 -31.21 734.568 34.372L734.568 34.372L734.567 34.372z" stroke="none" fill="#8B9BC1" fill-rule="nonzero" />
            <path transform="matrix(1.9 0 0 1.9 -900 30)"  d="M734.567 34.372C 705.875 96.096 711.301 134.794 750.84204 150.466C 810.155 173.974 951.189 183.377 1010.14105 234.37201C 1069.0911 285.366 1248.838 245.94402 1279.5791 158.42201C 1310.32 70.9 1365.669 -64 1073.808 -64C 879.232 -64 766.154 -31.21 734.568 34.372L734.568 34.372L734.567 34.372z" stroke="none" fill="#7D8AB5" fill-rule="nonzero" />
            <path transform="matrix(1.75 0 0 1.75 -750 25)"  d="M734.567 34.372C 705.875 96.096 711.301 134.794 750.84204 150.466C 810.155 173.974 951.189 183.377 1010.14105 234.37201C 1069.0911 285.366 1248.838 245.94402 1279.5791 158.42201C 1310.32 70.9 1365.669 -64 1073.808 -64C 879.232 -64 766.154 -31.21 734.568 34.372L734.568 34.372L734.567 34.372z" stroke="none" fill="#6E79A9" fill-rule="nonzero" />
            <path transform="matrix(1.6 0 0 1.6 -600 20)"  d="M734.567 34.372C 705.875 96.096 711.301 134.794 750.84204 150.466C 810.155 173.974 951.189 183.377 1010.14105 234.37201C 1069.0911 285.366 1248.838 245.94402 1279.5791 158.42201C 1310.32 70.9 1365.669 -64 1073.808 -64C 879.232 -64 766.154 -31.21 734.568 34.372L734.568 34.372L734.567 34.372z" stroke="none" fill="#5F679C" fill-rule="nonzero" />
            <path transform="matrix(1.45 0 0 1.45 -450 15)"  d="M734.567 34.372C 705.875 96.096 711.301 134.794 750.84204 150.466C 810.155 173.974 951.189 183.377 1010.14105 234.37201C 1069.0911 285.366 1248.838 245.94402 1279.5791 158.42201C 1310.32 70.9 1365.669 -64 1073.808 -64C 879.232 -64 766.154 -31.21 734.568 34.372L734.568 34.372L734.567 34.372z" stroke="none" fill="#505690" fill-rule="nonzero" />
            <path transform="matrix(1.3 0 0 1.3 -300 10)"  d="M734.567 34.372C 705.875 96.096 711.301 134.794 750.84204 150.466C 810.155 173.974 951.189 183.377 1010.14105 234.37201C 1069.0911 285.366 1248.838 245.94402 1279.5791 158.42201C 1310.32 70.9 1365.669 -64 1073.808 -64C 879.232 -64 766.154 -31.21 734.568 34.372L734.568 34.372L734.567 34.372z" stroke="none" fill="#414584" fill-rule="nonzero" />
            <path transform="matrix(1.15 0 0 1.15 -150 5)"  d="M734.567 34.372C 705.875 96.096 711.301 134.794 750.84204 150.466C 810.155 173.974 951.189 183.377 1010.14105 234.37201C 1069.0911 285.366 1248.838 245.94402 1279.5791 158.42201C 1310.32 70.9 1365.669 -64 1073.808 -64C 879.232 -64 766.154 -31.21 734.568 34.372L734.568 34.372L734.567 34.372z" stroke="none" fill="#323377" fill-rule="nonzero" />
		</g>
	</g>
</g>
</svg>